<svg xmlns="http://www.w3.org/2000/svg" xmlns:xlink="http://www.w3.org/1999/xlink" width="500" zoomAndPan="magnify" viewBox="0 0 375 374.999991" height="500" preserveAspectRatio="xMidYMid meet" version="1.2"><defs><clipPath id="ae89aab504"><path d="M 26.015625 0 L 349.265625 0 L 349.265625 375 L 26.015625 375 Z M 26.015625 0 "/></clipPath><clipPath id="46123b8be6"><path d="M 172.175781 154.902344 L 220.039062 154.902344 L 220.039062 240.101562 L 172.175781 240.101562 Z M 172.175781 154.902344 "/></clipPath><clipPath id="f321edcecd"><path d="M 0.175781 0.902344 L 48.039062 0.902344 L 48.039062 86.101562 L 0.175781 86.101562 Z M 0.175781 0.902344 "/></clipPath><clipPath id="a9a70f7c6d"><rect x="0" width="49" y="0" height="87"/></clipPath></defs><g id="8d4115a459"><g clip-rule="nonzero" clip-path="url(#ae89aab504)"><path style=" stroke:none;fill-rule:evenodd;fill:#000000;fill-opacity:1;" d="M 171.199219 375 L 32.40625 291.390625 L 75.496094 269.863281 Z M 26.058594 279.152344 L 26.058594 117.824219 L 68.691406 257.855469 Z M 26.058594 106.496094 L 26.058594 97.207031 C 26.058594 94.941406 26.964844 93.125 28.324219 91.765625 L 180.722656 54.378906 L 180.722656 0 L 31.5 89.726562 L 78.671875 244.261719 L 174.148438 70.015625 Z M 194.558594 0 L 344.007812 89.953125 L 296.15625 244.488281 L 200.90625 69.5625 L 349.222656 105.589844 L 349.222656 97.207031 C 349.222656 94.488281 347.863281 92.445312 346.046875 91.085938 L 345.367188 90.859375 L 194.558594 54.152344 Z M 349.222656 119.410156 L 349.222656 278.699219 L 306.136719 257.855469 Z M 342.875 291.164062 L 204.308594 374.546875 L 299.558594 269.863281 Z M 281.867188 268.277344 L 92.957031 268.277344 L 187.527344 372.734375 Z M 187.753906 73.640625 L 88.648438 254.683594 L 286.40625 254.683594 Z M 187.753906 73.640625 "/></g><g clip-rule="nonzero" clip-path="url(#46123b8be6)"><g transform="matrix(1,0,0,1,172,154)"><g clip-path="url(#a9a70f7c6d)"><g clip-rule="nonzero" clip-path="url(#f321edcecd)"><path style=" stroke:none;fill-rule:nonzero;fill:#000000;fill-opacity:1;" d="M 0.175781 0.902344 L 48.039062 0.902344 L 48.039062 86.160156 L 0.175781 86.160156 Z M 0.175781 0.902344 "/></g></g></g></g></g></svg>