<svg xmlns="http://www.w3.org/2000/svg" xmlns:xlink="http://www.w3.org/1999/xlink" width="500" zoomAndPan="magnify" viewBox="0 0 375 374.999991" height="500" preserveAspectRatio="xMidYMid meet" version="1.2"><defs><clipPath id="ec71cb6cf6"><path d="M 26.015625 0 L 349 0 L 349 375 L 26.015625 375 Z M 26.015625 0 "/></clipPath><clipPath id="0ff8d52537"><path d="M 172.175781 154.902344 L 220.039062 154.902344 L 220.039062 240.101562 L 172.175781 240.101562 Z M 172.175781 154.902344 "/></clipPath><clipPath id="22074ec9a2"><path d="M 0.175781 0.902344 L 48.039062 0.902344 L 48.039062 86.101562 L 0.175781 86.101562 Z M 0.175781 0.902344 "/></clipPath><clipPath id="2c2a832c32"><rect x="0" width="49" y="0" height="87"/></clipPath></defs><g id="aa5c367309"><g clip-rule="nonzero" clip-path="url(#ec71cb6cf6)"><path style=" stroke:none;fill-rule:evenodd;fill:#ffffff;fill-opacity:1;" d="M 171.074219 375 L 32.402344 291.390625 L 75.453125 269.863281 Z M 26.058594 279.152344 L 26.058594 117.824219 L 68.65625 257.855469 Z M 26.058594 106.496094 L 26.058594 97.207031 C 26.058594 94.941406 26.964844 93.125 28.324219 91.765625 L 180.589844 54.378906 L 180.589844 0 L 31.496094 89.726562 L 78.625 244.261719 L 174.019531 70.015625 Z M 194.410156 0 L 343.730469 89.953125 L 295.921875 244.488281 L 200.753906 69.5625 L 348.941406 105.589844 L 348.941406 97.207031 C 348.941406 94.488281 347.582031 92.445312 345.769531 91.085938 L 345.089844 90.859375 L 194.410156 54.152344 Z M 348.941406 119.410156 L 348.941406 278.699219 L 305.890625 257.855469 Z M 342.597656 291.164062 L 204.152344 374.546875 L 299.320312 269.863281 Z M 281.648438 268.277344 L 92.898438 268.277344 L 187.386719 372.734375 Z M 187.613281 73.640625 L 88.59375 254.683594 L 286.179688 254.683594 Z M 187.613281 73.640625 "/></g><g clip-rule="nonzero" clip-path="url(#0ff8d52537)"><g transform="matrix(1,0,0,1,172,154)"><g clip-path="url(#2c2a832c32)"><g clip-rule="nonzero" clip-path="url(#22074ec9a2)"><path style=" stroke:none;fill-rule:nonzero;fill:#ffffff;fill-opacity:1;" d="M 0.175781 0.902344 L 48.039062 0.902344 L 48.039062 86.160156 L 0.175781 86.160156 Z M 0.175781 0.902344 "/></g></g></g></g></g></svg>